<?xml version="1.0" standalone="no"?>
<!DOCTYPE svg PUBLIC "-//W3C//DTD SVG 1.1//EN"
"http://www.w3.org/Graphics/SVG/1.1/DTD/svg11.dtd">

<svg width="681" height="459" view_box="0 0 681 459"
xmlns="http://www.w3.org/2000/svg"
xmlns:link="http://www.w3.org/1999/xlink">\n\n<desc>Généré par Mocodo 2.3.7 le Mon, 17 Aug 2020 11:49:13</desc>

<rect id="frame" x="0" y="0" width="681" height="459" fill="none" stroke="none" stroke-width="0"/>

<!-- Association OWN -->
<line x1="341" y1="111" x2="484" y2="111" stroke="#726f83" stroke-width="2"/>
<text x="400" y="128.0" fill="#726f83" font-family="Verdana" font-size="12">1,1</text>
<line x1="620" y1="111" x2="484" y2="111" stroke="#726f83" stroke-width="2"/>
<text x="541" y="128.0" fill="#726f83" font-family="Verdana" font-size="12">1,N</text>
<g id="association-OWN">
	<path d="M 493 86 a 14 14 90 0 1 14 14 V 111 h -46 V 100 a 14 14 90 0 1 14 -14" fill="#b2bba4" stroke="#b2bba4" stroke-width="0"/>
	<path d="M 507 111.0 v 11 a 14 14 90 0 1 -14 14 H 475 a 14 14 90 0 1 -14 -14 V 111.0 H 46" fill="#ccd6ba" stroke="#ccd6ba" stroke-width="0"/>
	<rect x="461" y="86" width="46" height="50" fill="none" rx="14" stroke="#85956b" stroke-width="2"/>
	<line x1="461" y1="111" x2="507" y2="111" stroke="#85956b" stroke-width="1"/>
	<text x="468" y="103.7" fill="#27360c" font-family="Verdana" font-size="12">OWN</text>
</g>

<!-- Association HAVE -->
<line x1="341" y1="111" x2="192" y2="111" stroke="#726f83" stroke-width="2"/>
<text x="260" y="128.0" fill="#726f83" font-family="Verdana" font-size="12">0,N</text>
<line x1="192" y1="272" x2="192" y2="111" stroke="#726f83" stroke-width="2"/>
<text x="197.0" y="230" fill="#726f83" font-family="Verdana" font-size="12">1,1</text>
<g id="association-HAVE">
	<path d="M 202 86 a 14 14 90 0 1 14 14 V 111 h -48 V 100 a 14 14 90 0 1 14 -14" fill="#b2bba4" stroke="#b2bba4" stroke-width="0"/>
	<path d="M 216 111.0 v 11 a 14 14 90 0 1 -14 14 H 182 a 14 14 90 0 1 -14 -14 V 111.0 H 48" fill="#ccd6ba" stroke="#ccd6ba" stroke-width="0"/>
	<rect x="168" y="86" width="48" height="50" fill="none" rx="14" stroke="#85956b" stroke-width="2"/>
	<line x1="168" y1="111" x2="216" y2="111" stroke="#85956b" stroke-width="1"/>
	<text x="175" y="103.7" fill="#27360c" font-family="Verdana" font-size="12">HAVE</text>
</g>

<!-- Association FORWARD_S -->
<line x1="192" y1="272" x2="341" y2="272" stroke="#726f83" stroke-width="2"/>
<text x="255" y="289.0" fill="#726f83" font-family="Verdana" font-size="12">1,1</text>
<line x1="484" y1="272" x2="341" y2="272" stroke="#726f83" stroke-width="2"/>
<text x="393" y="289.0" fill="#726f83" font-family="Verdana" font-size="12">0,N</text>
<g id="association-FORWARD_S">
	<path d="M 374 247 a 14 14 90 0 1 14 14 V 272 h -94 V 261 a 14 14 90 0 1 14 -14" fill="#b2bba4" stroke="#b2bba4" stroke-width="0"/>
	<path d="M 388 272.0 v 11 a 14 14 90 0 1 -14 14 H 308 a 14 14 90 0 1 -14 -14 V 272.0 H 94" fill="#ccd6ba" stroke="#ccd6ba" stroke-width="0"/>
	<rect x="294" y="247" width="94" height="50" fill="none" rx="14" stroke="#85956b" stroke-width="2"/>
	<line x1="294" y1="272" x2="388" y2="272" stroke="#85956b" stroke-width="1"/>
	<text x="301" y="264.7" fill="#27360c" font-family="Verdana" font-size="12">FORWARD_S</text>
</g>

<!-- Association LOCATE_R -->
<line x1="620" y1="399" x2="484" y2="399" stroke="#726f83" stroke-width="2"/>
<text x="546" y="416.0" fill="#726f83" font-family="Verdana" font-size="12">0,N</text>
<line x1="341" y1="399" x2="484" y2="399" stroke="#726f83" stroke-width="2"/>
<text x="416" y="416.0" fill="#726f83" font-family="Verdana" font-size="12">1,1</text>
<g id="association-LOCATE_R">
	<path d="M 510 374 a 14 14 90 0 1 14 14 V 399 h -80 V 388 a 14 14 90 0 1 14 -14" fill="#b2bba4" stroke="#b2bba4" stroke-width="0"/>
	<path d="M 524 399.0 v 11 a 14 14 90 0 1 -14 14 H 458 a 14 14 90 0 1 -14 -14 V 399.0 H 80" fill="#ccd6ba" stroke="#ccd6ba" stroke-width="0"/>
	<rect x="444" y="374" width="80" height="50" fill="none" rx="14" stroke="#85956b" stroke-width="2"/>
	<line x1="444" y1="399" x2="524" y2="399" stroke="#85956b" stroke-width="1"/>
	<text x="451" y="391.7" fill="#27360c" font-family="Verdana" font-size="12">LOCATE_R</text>
</g>

<!-- Association STATEMENT -->
<line x1="58" y1="111" x2="58" y2="272" stroke="#726f83" stroke-width="2"/>
<text x="63.0" y="230" fill="#726f83" font-family="Verdana" font-size="12">0,N</text>
<line x1="192" y1="272" x2="58" y2="272" stroke="#726f83" stroke-width="2"/>
<text x="108" y="289.0" fill="#726f83" font-family="Verdana" font-size="12">1,1</text>
<g id="association-STATEMENT">
	<path d="M 88 247 a 14 14 90 0 1 14 14 V 272 h -88 V 261 a 14 14 90 0 1 14 -14" fill="#b2bba4" stroke="#b2bba4" stroke-width="0"/>
	<path d="M 102 272.0 v 11 a 14 14 90 0 1 -14 14 H 28 a 14 14 90 0 1 -14 -14 V 272.0 H 88" fill="#ccd6ba" stroke="#ccd6ba" stroke-width="0"/>
	<rect x="14" y="247" width="88" height="50" fill="none" rx="14" stroke="#85956b" stroke-width="2"/>
	<line x1="14" y1="272" x2="102" y2="272" stroke="#85956b" stroke-width="1"/>
	<text x="21" y="264.7" fill="#27360c" font-family="Verdana" font-size="12">STATEMENT</text>
</g>

<!-- Association LOCATE_S -->
<line x1="620" y1="399" x2="620" y2="272" stroke="#726f83" stroke-width="2"/>
<text x="625.0" y="357" fill="#726f83" font-family="Verdana" font-size="12">0,N</text>
<line x1="484" y1="272" x2="620" y2="272" stroke="#726f83" stroke-width="2"/>
<text x="553" y="289.0" fill="#726f83" font-family="Verdana" font-size="12">1,1</text>
<g id="association-LOCATE_S">
	<path d="M 646 247 a 14 14 90 0 1 14 14 V 272 h -80 V 261 a 14 14 90 0 1 14 -14" fill="#b2bba4" stroke="#b2bba4" stroke-width="0"/>
	<path d="M 660 272.0 v 11 a 14 14 90 0 1 -14 14 H 594 a 14 14 90 0 1 -14 -14 V 272.0 H 80" fill="#ccd6ba" stroke="#ccd6ba" stroke-width="0"/>
	<rect x="580" y="247" width="80" height="50" fill="none" rx="14" stroke="#85956b" stroke-width="2"/>
	<line x1="580" y1="272" x2="660" y2="272" stroke="#85956b" stroke-width="1"/>
	<text x="587" y="264.7" fill="#27360c" font-family="Verdana" font-size="12">LOCATE_S</text>
</g>

<!-- Association FORWARD_R -->
<line x1="192" y1="272" x2="192" y2="399" stroke="#726f83" stroke-width="2"/>
<text x="197.0" y="323" fill="#726f83" font-family="Verdana" font-size="12">1,1</text>
<line x1="341" y1="399" x2="192" y2="399" stroke="#726f83" stroke-width="2"/>
<text x="244" y="416.0" fill="#726f83" font-family="Verdana" font-size="12">0,N</text>
<g id="association-FORWARD_R">
	<path d="M 225 374 a 14 14 90 0 1 14 14 V 399 h -94 V 388 a 14 14 90 0 1 14 -14" fill="#b2bba4" stroke="#b2bba4" stroke-width="0"/>
	<path d="M 239 399.0 v 11 a 14 14 90 0 1 -14 14 H 159 a 14 14 90 0 1 -14 -14 V 399.0 H 94" fill="#ccd6ba" stroke="#ccd6ba" stroke-width="0"/>
	<rect x="145" y="374" width="94" height="50" fill="none" rx="14" stroke="#85956b" stroke-width="2"/>
	<line x1="145" y1="399" x2="239" y2="399" stroke="#85956b" stroke-width="1"/>
	<text x="152" y="391.7" fill="#27360c" font-family="Verdana" font-size="12">FORWARD_R</text>
</g>

<!-- Entity BILL_ADDRESS -->
<g id="entity-BILL_ADDRESS">
	<g id="frame-BILL_ADDRESS">
		<rect x="568" y="60" width="104" height="25" fill="#97b8ff" stroke="#97b8ff" stroke-width="0"/>
		<rect x="568" y="85.0" width="104" height="77" fill="#c0d4ff" stroke="#c0d4ff" stroke-width="0"/>
		<rect x="568" y="60" width="104" height="102" fill="none" stroke="#578dff" stroke-width="2"/>
		<line x1="568" y1="85" x2="672" y2="85" stroke="#578dff" stroke-width="1"/>
	</g>
	<text x="573" y="77.7" fill="#131114" font-family="Verdana" font-size="12">BILL_ADDRESS</text>
	<text x="573" y="102.7" fill="#3e3c42" font-family="Verdana" font-size="12">main</text>
	<line x1="573" y1="105" x2="604" y2="105" stroke="#3e3c42" stroke-width="1"/>
	<text x="573" y="119.8" fill="#3e3c42" font-family="Verdana" font-size="12">complement</text>
	<text x="573" y="136.8" fill="#3e3c42" font-family="Verdana" font-size="12">postal_code</text>
	<text x="573" y="153.8" fill="#3e3c42" font-family="Verdana" font-size="12">city</text>
</g>

<!-- Entity QUOTE -->
<g id="entity-QUOTE">
	<g id="frame-QUOTE">
		<rect x="9" y="9" width="98" height="25" fill="#97b8ff" stroke="#97b8ff" stroke-width="0"/>
		<rect x="9" y="34.0" width="98" height="179" fill="#c0d4ff" stroke="#c0d4ff" stroke-width="0"/>
		<rect x="9" y="9" width="98" height="204" fill="none" stroke="#578dff" stroke-width="2"/>
		<line x1="9" y1="34" x2="107" y2="34" stroke="#578dff" stroke-width="1"/>
	</g>
	<text x="36" y="26.7" fill="#131114" font-family="Verdana" font-size="12">QUOTE</text>
	<text x="14" y="51.7" fill="#3e3c42" font-family="Verdana" font-size="12">ref_quote</text>
	<line x1="14" y1="54" x2="73" y2="54" stroke="#3e3c42" stroke-width="1"/>
	<text x="14" y="68.7" fill="#3e3c42" font-family="Verdana" font-size="12">nbr_of_pallets</text>
	<text x="14" y="85.7" fill="#3e3c42" font-family="Verdana" font-size="12">distance</text>
	<text x="14" y="102.7" fill="#3e3c42" font-family="Verdana" font-size="12">price</text>
	<text x="14" y="119.8" fill="#3e3c42" font-family="Verdana" font-size="12">date_quote</text>
	<text x="14" y="136.8" fill="#3e3c42" font-family="Verdana" font-size="12">width</text>
	<text x="14" y="153.8" fill="#3e3c42" font-family="Verdana" font-size="12">length</text>
	<text x="14" y="170.8" fill="#3e3c42" font-family="Verdana" font-size="12">height</text>
	<text x="14" y="187.8" fill="#3e3c42" font-family="Verdana" font-size="12">weight</text>
	<text x="14" y="204.8" fill="#3e3c42" font-family="Verdana" font-size="12">comments</text>
</g>

<!-- Entity SENDER_ADDRESS -->
<g id="entity-SENDER_ADDRESS">
	<g id="frame-SENDER_ADDRESS">
		<rect x="420" y="221" width="128" height="25" fill="#97b8ff" stroke="#97b8ff" stroke-width="0"/>
		<rect x="420" y="246.0" width="128" height="77" fill="#c0d4ff" stroke="#c0d4ff" stroke-width="0"/>
		<rect x="420" y="221" width="128" height="102" fill="none" stroke="#578dff" stroke-width="2"/>
		<line x1="420" y1="246" x2="548" y2="246" stroke="#578dff" stroke-width="1"/>
	</g>
	<text x="425" y="238.7" fill="#131114" font-family="Verdana" font-size="12">SENDER_ADDRESS</text>
	<text x="425" y="263.7" fill="#3e3c42" font-family="Verdana" font-size="12">main</text>
	<line x1="425" y1="266" x2="456" y2="266" stroke="#3e3c42" stroke-width="1"/>
	<text x="425" y="280.8" fill="#3e3c42" font-family="Verdana" font-size="12">complement</text>
	<text x="425" y="297.8" fill="#3e3c42" font-family="Verdana" font-size="12">postal_code</text>
	<text x="425" y="314.8" fill="#3e3c42" font-family="Verdana" font-size="12">city</text>
</g>

<!-- Entity USER -->
<g id="entity-USER">
	<g id="frame-USER">
		<rect x="287" y="26" width="108" height="25" fill="#97b8ff" stroke="#97b8ff" stroke-width="0"/>
		<rect x="287" y="51.0" width="108" height="145" fill="#c0d4ff" stroke="#c0d4ff" stroke-width="0"/>
		<rect x="287" y="26" width="108" height="170" fill="none" stroke="#578dff" stroke-width="2"/>
		<line x1="287" y1="51" x2="395" y2="51" stroke="#578dff" stroke-width="1"/>
	</g>
	<text x="324" y="43.7" fill="#131114" font-family="Verdana" font-size="12">USER</text>
	<text x="292" y="68.7" fill="#3e3c42" font-family="Verdana" font-size="12">name</text>
	<line x1="292" y1="71" x2="327" y2="71" stroke="#3e3c42" stroke-width="1"/>
	<text x="292" y="85.7" fill="#3e3c42" font-family="Verdana" font-size="12">password</text>
	<text x="292" y="102.7" fill="#3e3c42" font-family="Verdana" font-size="12">role</text>
	<text x="292" y="119.8" fill="#3e3c42" font-family="Verdana" font-size="12">inscription_date</text>
	<text x="292" y="136.8" fill="#3e3c42" font-family="Verdana" font-size="12">mail</text>
	<text x="292" y="153.8" fill="#3e3c42" font-family="Verdana" font-size="12">phone</text>
	<text x="292" y="170.8" fill="#3e3c42" font-family="Verdana" font-size="12">SIRET</text>
	<text x="292" y="187.8" fill="#3e3c42" font-family="Verdana" font-size="12">type</text>
</g>

<!-- Entity SHIPMENT -->
<g id="entity-SHIPMENT">
	<g id="frame-SHIPMENT">
		<rect x="134" y="238" width="116" height="25" fill="#97b8ff" stroke="#97b8ff" stroke-width="0"/>
		<rect x="134" y="263.0" width="116" height="43" fill="#c0d4ff" stroke="#c0d4ff" stroke-width="0"/>
		<rect x="134" y="238" width="116" height="68" fill="none" stroke="#578dff" stroke-width="2"/>
		<line x1="134" y1="263" x2="250" y2="263" stroke="#578dff" stroke-width="1"/>
	</g>
	<text x="159" y="255.7" fill="#131114" font-family="Verdana" font-size="12">SHIPMENT</text>
	<text x="139" y="280.8" fill="#3e3c42" font-family="Verdana" font-size="12">ref</text>
	<line x1="139" y1="283" x2="157" y2="283" stroke="#3e3c42" stroke-width="1"/>
	<text x="139" y="297.8" fill="#3e3c42" font-family="Verdana" font-size="12">DATE_CREATION</text>
</g>

<!-- Entity DEPARTMENT -->
<g id="entity-DEPARTMENT">
	<g id="frame-DEPARTMENT">
		<rect x="573" y="365" width="94" height="25" fill="#97b8ff" stroke="#97b8ff" stroke-width="0"/>
		<rect x="573" y="390.0" width="94" height="43" fill="#c0d4ff" stroke="#c0d4ff" stroke-width="0"/>
		<rect x="573" y="365" width="94" height="68" fill="none" stroke="#578dff" stroke-width="2"/>
		<line x1="573" y1="390" x2="667" y2="390" stroke="#578dff" stroke-width="1"/>
	</g>
	<text x="578" y="382.7" fill="#131114" font-family="Verdana" font-size="12">DEPARTMENT</text>
	<text x="578" y="407.8" fill="#3e3c42" font-family="Verdana" font-size="12">nbr</text>
	<line x1="578" y1="410" x2="599" y2="410" stroke="#3e3c42" stroke-width="1"/>
	<text x="578" y="424.8" fill="#3e3c42" font-family="Verdana" font-size="12">name</text>
</g>

<!-- Entity RECEIVER_ADDRESS -->
<g id="entity-RECEIVER_ADDRESS">
	<g id="frame-RECEIVER_ADDRESS">
		<rect x="271" y="348" width="140" height="25" fill="#97b8ff" stroke="#97b8ff" stroke-width="0"/>
		<rect x="271" y="373.0" width="140" height="77" fill="#c0d4ff" stroke="#c0d4ff" stroke-width="0"/>
		<rect x="271" y="348" width="140" height="102" fill="none" stroke="#578dff" stroke-width="2"/>
		<line x1="271" y1="373" x2="411" y2="373" stroke="#578dff" stroke-width="1"/>
	</g>
	<text x="276" y="365.7" fill="#131114" font-family="Verdana" font-size="12">RECEIVER_ADDRESS</text>
	<text x="276" y="390.7" fill="#3e3c42" font-family="Verdana" font-size="12">main</text>
	<line x1="276" y1="393" x2="307" y2="393" stroke="#3e3c42" stroke-width="1"/>
	<text x="276" y="407.8" fill="#3e3c42" font-family="Verdana" font-size="12">complement</text>
	<text x="276" y="424.8" fill="#3e3c42" font-family="Verdana" font-size="12">postal_code</text>
	<text x="276" y="441.8" fill="#3e3c42" font-family="Verdana" font-size="12">city</text>
</g>

<!-- Entity DOCUMENT -->
<g id="entity-DOCUMENT">
	<g id="frame-DOCUMENT">
		<rect x="17" y="374" width="82" height="25" fill="#97b8ff" stroke="#97b8ff" stroke-width="0"/>
		<rect x="17" y="399.0" width="82" height="25" fill="#c0d4ff" stroke="#c0d4ff" stroke-width="0"/>
		<rect x="17" y="374" width="82" height="50" fill="none" stroke="#578dff" stroke-width="2"/>
		<line x1="17" y1="399" x2="99" y2="399" stroke="#578dff" stroke-width="1"/>
	</g>
	<text x="22" y="391.7" fill="#131114" font-family="Verdana" font-size="12">DOCUMENT</text>
	<text x="22" y="416.8" fill="#3e3c42" font-family="Verdana" font-size="12">source</text>
	<line x1="22" y1="419" x2="63" y2="419" stroke="#3e3c42" stroke-width="1"/>
</g>
</svg>